%TF.GenerationSoftware,KiCad,Pcbnew,(6.0.9)*%
%TF.CreationDate,2022-12-04T20:55:25-04:00*%
%TF.ProjectId,pika-board,70696b61-2d62-46f6-9172-642e6b696361,rev?*%
%TF.SameCoordinates,Original*%
%TF.FileFunction,Soldermask,Bot*%
%TF.FilePolarity,Negative*%
%FSLAX46Y46*%
G04 Gerber Fmt 4.6, Leading zero omitted, Abs format (unit mm)*
G04 Created by KiCad (PCBNEW (6.0.9)) date 2022-12-04 20:55:25*
%MOMM*%
%LPD*%
G01*
G04 APERTURE LIST*
G04 Aperture macros list*
%AMRoundRect*
0 Rectangle with rounded corners*
0 $1 Rounding radius*
0 $2 $3 $4 $5 $6 $7 $8 $9 X,Y pos of 4 corners*
0 Add a 4 corners polygon primitive as box body*
4,1,4,$2,$3,$4,$5,$6,$7,$8,$9,$2,$3,0*
0 Add four circle primitives for the rounded corners*
1,1,$1+$1,$2,$3*
1,1,$1+$1,$4,$5*
1,1,$1+$1,$6,$7*
1,1,$1+$1,$8,$9*
0 Add four rect primitives between the rounded corners*
20,1,$1+$1,$2,$3,$4,$5,0*
20,1,$1+$1,$4,$5,$6,$7,0*
20,1,$1+$1,$6,$7,$8,$9,0*
20,1,$1+$1,$8,$9,$2,$3,0*%
%AMRotRect*
0 Rectangle, with rotation*
0 The origin of the aperture is its center*
0 $1 length*
0 $2 width*
0 $3 Rotation angle, in degrees counterclockwise*
0 Add horizontal line*
21,1,$1,$2,0,0,$3*%
G04 Aperture macros list end*
%ADD10C,2.000000*%
%ADD11R,2.800000X3.600000*%
%ADD12C,0.800000*%
%ADD13C,5.000000*%
%ADD14C,3.000000*%
%ADD15C,1.600000*%
%ADD16C,0.650000*%
%ADD17O,1.000000X1.600000*%
%ADD18O,1.000000X2.100000*%
%ADD19R,0.900000X1.200000*%
%ADD20C,3.987800*%
%ADD21C,1.750000*%
%ADD22C,3.300000*%
%ADD23RoundRect,0.250000X1.025000X1.000000X-1.025000X1.000000X-1.025000X-1.000000X1.025000X-1.000000X0*%
%ADD24RotRect,0.739500X1.900000X45.000000*%
%ADD25RoundRect,0.250000X-0.450000X0.262500X-0.450000X-0.262500X0.450000X-0.262500X0.450000X0.262500X0*%
%ADD26RoundRect,0.250000X-0.325000X-0.450000X0.325000X-0.450000X0.325000X0.450000X-0.325000X0.450000X0*%
%ADD27RoundRect,0.250000X0.475000X-0.250000X0.475000X0.250000X-0.475000X0.250000X-0.475000X-0.250000X0*%
%ADD28RoundRect,0.250000X0.250000X0.475000X-0.250000X0.475000X-0.250000X-0.475000X0.250000X-0.475000X0*%
%ADD29RoundRect,0.250000X-0.132583X0.503814X-0.503814X0.132583X0.132583X-0.503814X0.503814X-0.132583X0*%
%ADD30RotRect,1.500000X0.550000X225.000000*%
%ADD31RotRect,1.500000X0.550000X135.000000*%
%ADD32RoundRect,0.250000X0.450000X-0.262500X0.450000X0.262500X-0.450000X0.262500X-0.450000X-0.262500X0*%
%ADD33RoundRect,0.250000X-0.250000X-0.475000X0.250000X-0.475000X0.250000X0.475000X-0.250000X0.475000X0*%
%ADD34RoundRect,0.250000X0.159099X-0.512652X0.512652X-0.159099X-0.159099X0.512652X-0.512652X0.159099X0*%
G04 APERTURE END LIST*
D10*
%TO.C,S2*%
X96718750Y-76887500D03*
X101718750Y-76887500D03*
D11*
X104918750Y-83887500D03*
X93518750Y-83887500D03*
D10*
X96718750Y-91387500D03*
X101718750Y-91387500D03*
X99218750Y-91387500D03*
%TD*%
%TO.C,S1*%
X41156250Y-76887500D03*
X46156250Y-76887500D03*
D11*
X37956250Y-83887500D03*
X49356250Y-83887500D03*
D10*
X41156250Y-91387500D03*
X46156250Y-91387500D03*
X43656250Y-91387500D03*
%TD*%
D12*
%TO.C,H3*%
X109005425Y-164567925D03*
X109005425Y-167219575D03*
X110331250Y-164018750D03*
X111657075Y-164567925D03*
X108456250Y-165893750D03*
X112206250Y-165893750D03*
X111657075Y-167219575D03*
X110331250Y-167768750D03*
D13*
X110331250Y-165893750D03*
%TD*%
D12*
%TO.C,H5*%
X71437500Y-164018750D03*
X70111675Y-167219575D03*
D13*
X71437500Y-165893750D03*
D12*
X72763325Y-164567925D03*
X72763325Y-167219575D03*
X69562500Y-165893750D03*
X71437500Y-167768750D03*
X70111675Y-164567925D03*
X73312500Y-165893750D03*
%TD*%
D14*
%TO.C,U3*%
X82532500Y-71986896D03*
X82532500Y-93986896D03*
X60532500Y-71986896D03*
X60532500Y-93986896D03*
D15*
X67722500Y-71486896D03*
X70262500Y-71486896D03*
X72802500Y-71486896D03*
X75342500Y-71486896D03*
%TD*%
D12*
%TO.C,H1*%
X31217925Y-164567925D03*
X34418750Y-165893750D03*
X30668750Y-165893750D03*
X33869575Y-167219575D03*
X32543750Y-164018750D03*
X33869575Y-164567925D03*
D13*
X32543750Y-165893750D03*
D12*
X32543750Y-167768750D03*
X31217925Y-167219575D03*
%TD*%
%TO.C,H4*%
X109005425Y-54768571D03*
X110331250Y-54219396D03*
X108456250Y-56094396D03*
X111657075Y-54768571D03*
D13*
X110331250Y-56094396D03*
D12*
X111657075Y-57420221D03*
X112206250Y-56094396D03*
X110331250Y-57969396D03*
X109005425Y-57420221D03*
%TD*%
%TO.C,H2*%
X34418750Y-56094396D03*
X32543750Y-57969396D03*
X33869575Y-54768571D03*
X30668750Y-56094396D03*
X33869575Y-57420221D03*
X31217925Y-54768571D03*
X31217925Y-57420221D03*
X32543750Y-54219396D03*
D13*
X32543750Y-56094396D03*
%TD*%
D16*
%TO.C,J1*%
X70135000Y-57111896D03*
X75915000Y-57111896D03*
D17*
X68705000Y-53431896D03*
X77345000Y-53431896D03*
D18*
X77345000Y-57611896D03*
X68705000Y-57611896D03*
%TD*%
D19*
%TO.C,D10*%
X100868750Y-119856250D03*
X97568750Y-119856250D03*
%TD*%
D20*
%TO.C,SW11*%
X100012500Y-130968750D03*
D21*
X105092500Y-130968750D03*
X94932500Y-130968750D03*
D22*
X96202500Y-128428750D03*
D23*
X92652500Y-128428750D03*
D22*
X102552500Y-125888750D03*
D23*
X106102500Y-125888750D03*
%TD*%
D19*
%TO.C,D7*%
X82612500Y-119856250D03*
X79312500Y-119856250D03*
%TD*%
%TO.C,D6*%
X63562500Y-157956250D03*
X60262500Y-157956250D03*
%TD*%
D24*
%TO.C,Y1*%
X87904217Y-97833283D03*
X88900000Y-96837500D03*
X89895783Y-95841717D03*
%TD*%
D25*
%TO.C,R11*%
X53975000Y-78200646D03*
X53975000Y-80025646D03*
%TD*%
D21*
%TO.C,SW6*%
X66992500Y-150018750D03*
D20*
X61912500Y-150018750D03*
D21*
X56832500Y-150018750D03*
D22*
X58102500Y-147478750D03*
D23*
X54552500Y-147478750D03*
D22*
X64452500Y-144938750D03*
D23*
X68002500Y-144938750D03*
%TD*%
D26*
%TO.C,F1*%
X81525000Y-65881250D03*
X83575000Y-65881250D03*
%TD*%
D19*
%TO.C,D12*%
X102456250Y-157956250D03*
X99156250Y-157956250D03*
%TD*%
D27*
%TO.C,C1*%
X33337500Y-95781896D03*
X33337500Y-93881896D03*
%TD*%
D19*
%TO.C,D1*%
X44512500Y-119856250D03*
X41212500Y-119856250D03*
%TD*%
D20*
%TO.C,SW2*%
X42862500Y-130968750D03*
D21*
X37782500Y-130968750D03*
X47942500Y-130968750D03*
D23*
X35502500Y-128428750D03*
D22*
X39052500Y-128428750D03*
D23*
X48952500Y-125888750D03*
D22*
X45402500Y-125888750D03*
%TD*%
D19*
%TO.C,D3*%
X44512500Y-157956250D03*
X41212500Y-157956250D03*
%TD*%
D28*
%TO.C,C5*%
X54925000Y-74612500D03*
X53025000Y-74612500D03*
%TD*%
D25*
%TO.C,R15*%
X108743750Y-76731896D03*
X108743750Y-78556896D03*
%TD*%
D19*
%TO.C,D8*%
X82612500Y-138906250D03*
X79312500Y-138906250D03*
%TD*%
D20*
%TO.C,SW7*%
X80962500Y-111918750D03*
D21*
X86042500Y-111918750D03*
X75882500Y-111918750D03*
D23*
X73602500Y-109378750D03*
D22*
X77152500Y-109378750D03*
X83502500Y-106838750D03*
D23*
X87052500Y-106838750D03*
%TD*%
D29*
%TO.C,R10*%
X76993750Y-98956896D03*
X75703280Y-100247366D03*
%TD*%
D19*
%TO.C,D4*%
X63562500Y-119856250D03*
X60262500Y-119856250D03*
%TD*%
D21*
%TO.C,SW4*%
X66992500Y-111918750D03*
D20*
X61912500Y-111918750D03*
D21*
X56832500Y-111918750D03*
D23*
X54552500Y-109378750D03*
D22*
X58102500Y-109378750D03*
D23*
X68002500Y-106838750D03*
D22*
X64452500Y-106838750D03*
%TD*%
D19*
%TO.C,D9*%
X82612500Y-157956250D03*
X79312500Y-157956250D03*
%TD*%
D20*
%TO.C,SW9*%
X80962500Y-150018750D03*
D21*
X86042500Y-150018750D03*
X75882500Y-150018750D03*
D22*
X77152500Y-147478750D03*
D23*
X73602500Y-147478750D03*
D22*
X83502500Y-144938750D03*
D23*
X87052500Y-144938750D03*
%TD*%
D21*
%TO.C,SW8*%
X86042500Y-130968750D03*
D20*
X80962500Y-130968750D03*
D21*
X75882500Y-130968750D03*
D22*
X77152500Y-128428750D03*
D23*
X73602500Y-128428750D03*
X87052500Y-125888750D03*
D22*
X83502500Y-125888750D03*
%TD*%
D30*
%TO.C,U2*%
X72639582Y-77016710D03*
X73205267Y-77582396D03*
X73770952Y-78148081D03*
X74336638Y-78713766D03*
X74902323Y-79279452D03*
X75468009Y-79845137D03*
X76033694Y-80410823D03*
X76599380Y-80976508D03*
X77165065Y-81542194D03*
X77730750Y-82107879D03*
X78296436Y-82673564D03*
D31*
X78296436Y-85077728D03*
X77730750Y-85643413D03*
X77165065Y-86209098D03*
X76599380Y-86774784D03*
X76033694Y-87340469D03*
X75468009Y-87906155D03*
X74902323Y-88471840D03*
X74336638Y-89037526D03*
X73770952Y-89603211D03*
X73205267Y-90168896D03*
X72639582Y-90734582D03*
D30*
X70235418Y-90734582D03*
X69669733Y-90168896D03*
X69104048Y-89603211D03*
X68538362Y-89037526D03*
X67972677Y-88471840D03*
X67406991Y-87906155D03*
X66841306Y-87340469D03*
X66275620Y-86774784D03*
X65709935Y-86209098D03*
X65144250Y-85643413D03*
X64578564Y-85077728D03*
D31*
X64578564Y-82673564D03*
X65144250Y-82107879D03*
X65709935Y-81542194D03*
X66275620Y-80976508D03*
X66841306Y-80410823D03*
X67406991Y-79845137D03*
X67972677Y-79279452D03*
X68538362Y-78713766D03*
X69104048Y-78148081D03*
X69669733Y-77582396D03*
X70235418Y-77016710D03*
%TD*%
D32*
%TO.C,R13*%
X89693750Y-82668750D03*
X89693750Y-80843750D03*
%TD*%
D28*
%TO.C,C4*%
X104931250Y-97631250D03*
X103031250Y-97631250D03*
%TD*%
D29*
%TO.C,R1*%
X72231250Y-94194396D03*
X70940780Y-95484866D03*
%TD*%
D20*
%TO.C,SW1*%
X42862500Y-111918750D03*
D21*
X37782500Y-111918750D03*
X47942500Y-111918750D03*
D22*
X39052500Y-109378750D03*
D23*
X35502500Y-109378750D03*
X48952500Y-106838750D03*
D22*
X45402500Y-106838750D03*
%TD*%
D29*
%TO.C,R7*%
X75406250Y-97369396D03*
X74115780Y-98659866D03*
%TD*%
D21*
%TO.C,SW5*%
X66992500Y-130968750D03*
D20*
X61912500Y-130968750D03*
D21*
X56832500Y-130968750D03*
D23*
X54552500Y-128428750D03*
D22*
X58102500Y-128428750D03*
D23*
X68002500Y-125888750D03*
D22*
X64452500Y-125888750D03*
%TD*%
D32*
%TO.C,R6*%
X33337500Y-80025646D03*
X33337500Y-78200646D03*
%TD*%
D19*
%TO.C,D2*%
X44512500Y-138906250D03*
X41212500Y-138906250D03*
%TD*%
D21*
%TO.C,SW12*%
X94932500Y-150018750D03*
X105092500Y-150018750D03*
D20*
X100012500Y-150018750D03*
D22*
X96202500Y-147478750D03*
D23*
X92652500Y-147478750D03*
X106102500Y-144938750D03*
D22*
X102552500Y-144938750D03*
%TD*%
D32*
%TO.C,R5*%
X33337500Y-88875646D03*
X33337500Y-87050646D03*
%TD*%
D19*
%TO.C,D11*%
X101662500Y-138906250D03*
X98362500Y-138906250D03*
%TD*%
D33*
%TO.C,C2*%
X42706250Y-94988146D03*
X44606250Y-94988146D03*
%TD*%
D32*
%TO.C,R14*%
X89693750Y-77231250D03*
X89693750Y-75406250D03*
%TD*%
D20*
%TO.C,SW10*%
X100012500Y-111918750D03*
D21*
X105092500Y-111918750D03*
X94932500Y-111918750D03*
D23*
X92652500Y-109378750D03*
D22*
X96202500Y-109378750D03*
X102552500Y-106838750D03*
D23*
X106102500Y-106838750D03*
%TD*%
D25*
%TO.C,R16*%
X108743750Y-86138146D03*
X108743750Y-87963146D03*
%TD*%
D21*
%TO.C,SW3*%
X47942500Y-150018750D03*
X37782500Y-150018750D03*
D20*
X42862500Y-150018750D03*
D22*
X39052500Y-147478750D03*
D23*
X35502500Y-147478750D03*
X48952500Y-144938750D03*
D22*
X45402500Y-144938750D03*
%TD*%
D34*
%TO.C,C6*%
X78031498Y-75694148D03*
X79375000Y-74350646D03*
%TD*%
D19*
%TO.C,D5*%
X63562500Y-138906250D03*
X60262500Y-138906250D03*
%TD*%
D25*
%TO.C,R12*%
X53975000Y-86138146D03*
X53975000Y-87963146D03*
%TD*%
D29*
%TO.C,R2*%
X73818750Y-95781896D03*
X72528280Y-97072366D03*
%TD*%
M02*
