M48
; DRILL file {KiCad (6.0.9)} date Sun 04 Dec 2022 08:54:54 PM AST
; FORMAT={-:-/ absolute / inch / decimal}
; #@! TF.CreationDate,2022-12-04T20:54:54-04:00
; #@! TF.GenerationSoftware,Kicad,Pcbnew,(6.0.9)
; #@! TF.FileFunction,Plated,1,2,PTH
FMAT,2
INCH
; #@! TA.AperFunction,Plated,PTH,ViaDrill
T1C0.0157
; #@! TA.AperFunction,Plated,PTH,ComponentDrill
T2C0.0197
; #@! TA.AperFunction,Plated,PTH,ComponentDrill
T3C0.0236
; #@! TA.AperFunction,Plated,PTH,ComponentDrill
T4C0.0315
; #@! TA.AperFunction,Plated,PTH,ComponentDrill
T5C0.0394
; #@! TA.AperFunction,Plated,PTH,ComponentDrill
T6C0.0709
; #@! TA.AperFunction,Plated,PTH,ComponentDrill
T7C0.0984
; #@! TA.AperFunction,Plated,PTH,ComponentDrill
T8C0.1181
%
G90
G05
T1
X1.7392Y-3.1459
X1.9375Y-4.625
X1.9375Y-4.7812
X1.9375Y-5.375
X1.9375Y-5.5312
X2.3371Y-3.4631
X2.4062Y-3.4062
X2.4467Y-3.5302
X2.5Y-3.6147
X2.5312Y-2.4375
X2.5312Y-2.7188
X2.5312Y-2.875
X2.5625Y-3.5522
X2.5938Y-2.9062
X2.6875Y-4.625
X2.6875Y-4.7812
X2.6875Y-5.375
X2.6875Y-5.5312
X2.7812Y-2.6147
X2.7812Y-3.2397
X2.8326Y-3.2761
X2.8438Y-2.1772
X2.9375Y-2.2084
X2.9688Y-2.4062
X3.0018Y-3.0643
X3.1345Y-2.7283
X3.1562Y-3.0
X3.2812Y-2.9688
X3.3125Y-3.5209
X3.4375Y-4.625
X3.4375Y-4.7812
X3.4375Y-5.375
X3.4375Y-5.5312
X3.4688Y-3.125
X3.5312Y-3.375
X3.875Y-3.9688
X4.1875Y-4.625
X4.1875Y-4.7812
X4.1875Y-5.375
X4.1875Y-5.5312
T2
X1.2074Y-2.2084
X1.2074Y-6.5312
X1.2291Y-2.1562
X1.2291Y-2.2606
X1.2291Y-6.4791
X1.2291Y-6.5834
X1.2812Y-2.1346
X1.2812Y-2.2823
X1.2812Y-6.4574
X1.2812Y-6.6051
X1.3334Y-2.1562
X1.3334Y-2.2606
X1.3334Y-6.4791
X1.3334Y-6.5834
X1.3551Y-2.2084
X1.3551Y-6.5312
X2.7387Y-6.5312
X2.7603Y-6.4791
X2.7603Y-6.5834
X2.8125Y-6.4574
X2.8125Y-6.6051
X2.8647Y-6.4791
X2.8647Y-6.5834
X2.8863Y-6.5312
X4.2699Y-2.2084
X4.2699Y-6.5312
X4.2916Y-2.1562
X4.2916Y-2.2606
X4.2916Y-6.4791
X4.2916Y-6.5834
X4.3438Y-2.1346
X4.3438Y-2.2823
X4.3438Y-6.4574
X4.3438Y-6.6051
X4.3959Y-2.1562
X4.3959Y-2.2606
X4.3959Y-6.4791
X4.3959Y-6.5834
X4.4176Y-2.2084
X4.4176Y-6.5312
T4
X2.6662Y-2.8144
X2.7662Y-2.8144
X2.8662Y-2.8144
X2.9662Y-2.8144
T5
X1.6203Y-3.0271
X1.6203Y-3.5979
X1.7188Y-3.5979
X1.8172Y-3.0271
X1.8172Y-3.5979
X3.8078Y-3.0271
X3.8078Y-3.5979
X3.9062Y-3.5979
X4.0047Y-3.0271
X4.0047Y-3.5979
T7
X1.2812Y-2.2084
X1.2812Y-6.5312
X2.8125Y-6.5312
X4.3438Y-2.2084
X4.3438Y-6.5312
T8
X1.5375Y-4.3062
X1.5375Y-5.0562
X1.5375Y-5.8062
X1.7875Y-4.2062
X1.7875Y-4.9562
X1.7875Y-5.7062
X2.2875Y-4.3062
X2.2875Y-5.0562
X2.2875Y-5.8062
X2.5375Y-4.2062
X2.5375Y-4.9562
X2.5375Y-5.7062
X3.0375Y-4.3062
X3.0375Y-5.0562
X3.0375Y-5.8062
X3.2875Y-4.2062
X3.2875Y-4.9562
X3.2875Y-5.7062
X3.7875Y-4.3062
X3.7875Y-5.0562
X3.7875Y-5.8062
X4.0375Y-4.2062
X4.0375Y-4.9562
X4.0375Y-5.7062
T3
G00X2.7049Y-2.1154
M15
G01X2.7049Y-2.0918
M16
G05
G00X2.7049Y-2.2898
M15
G01X2.7049Y-2.2465
M16
G05
G00X3.0451Y-2.1154
M15
G01X3.0451Y-2.0918
M16
G05
G00X3.0451Y-2.2898
M15
G01X3.0451Y-2.2465
M16
G05
T6
G00X1.4943Y-3.2869
M15
G01X1.4943Y-3.3184
M16
G05
G00X1.9432Y-3.2869
M15
G01X1.9432Y-3.3184
M16
G05
G00X3.6818Y-3.2869
M15
G01X3.6818Y-3.3184
M16
G05
G00X4.1307Y-3.2869
M15
G01X4.1307Y-3.3184
M16
G05
T0
M30
