M48
; DRILL file {KiCad (6.0.9)} date Sun 04 Dec 2022 08:54:54 PM AST
; FORMAT={-:-/ absolute / inch / decimal}
; #@! TF.CreationDate,2022-12-04T20:54:54-04:00
; #@! TF.GenerationSoftware,Kicad,Pcbnew,(6.0.9)
; #@! TF.FileFunction,NonPlated,1,2,NPTH
FMAT,2
INCH
; #@! TA.AperFunction,NonPlated,NPTH,ComponentDrill
T1C0.0256
; #@! TA.AperFunction,NonPlated,NPTH,ComponentDrill
T2C0.0689
; #@! TA.AperFunction,NonPlated,NPTH,ComponentDrill
T3C0.0984
; #@! TA.AperFunction,NonPlated,NPTH,ComponentDrill
T4C0.1570
%
G90
G05
T1
X2.7612Y-2.2485
X2.9888Y-2.2485
T2
X1.4875Y-4.4062
X1.4875Y-5.1562
X1.4875Y-5.9062
X1.8875Y-4.4062
X1.8875Y-5.1562
X1.8875Y-5.9062
X2.2375Y-4.4062
X2.2375Y-5.1562
X2.2375Y-5.9062
X2.6375Y-4.4062
X2.6375Y-5.1562
X2.6375Y-5.9062
X2.9875Y-4.4062
X2.9875Y-5.1562
X2.9875Y-5.9062
X3.3875Y-4.4062
X3.3875Y-5.1562
X3.3875Y-5.9062
X3.7375Y-4.4062
X3.7375Y-5.1562
X3.7375Y-5.9062
X4.1375Y-4.4062
X4.1375Y-5.1562
X4.1375Y-5.9062
T3
X2.3832Y-2.8341
X2.3832Y-3.7003
X3.2493Y-2.8341
X3.2493Y-3.7003
T4
X1.6875Y-4.4062
X1.6875Y-5.1562
X1.6875Y-5.9062
X2.4375Y-4.4062
X2.4375Y-5.1562
X2.4375Y-5.9062
X3.1875Y-4.4062
X3.1875Y-5.1562
X3.1875Y-5.9062
X3.9375Y-4.4062
X3.9375Y-5.1562
X3.9375Y-5.9062
T0
M30
