%TF.GenerationSoftware,KiCad,Pcbnew,(6.0.9)*%
%TF.CreationDate,2022-12-04T20:55:25-04:00*%
%TF.ProjectId,pika-board,70696b61-2d62-46f6-9172-642e6b696361,rev?*%
%TF.SameCoordinates,Original*%
%TF.FileFunction,Soldermask,Top*%
%TF.FilePolarity,Negative*%
%FSLAX46Y46*%
G04 Gerber Fmt 4.6, Leading zero omitted, Abs format (unit mm)*
G04 Created by KiCad (PCBNEW (6.0.9)) date 2022-12-04 20:55:25*
%MOMM*%
%LPD*%
G01*
G04 APERTURE LIST*
G04 Aperture macros list*
%AMRoundRect*
0 Rectangle with rounded corners*
0 $1 Rounding radius*
0 $2 $3 $4 $5 $6 $7 $8 $9 X,Y pos of 4 corners*
0 Add a 4 corners polygon primitive as box body*
4,1,4,$2,$3,$4,$5,$6,$7,$8,$9,$2,$3,0*
0 Add four circle primitives for the rounded corners*
1,1,$1+$1,$2,$3*
1,1,$1+$1,$4,$5*
1,1,$1+$1,$6,$7*
1,1,$1+$1,$8,$9*
0 Add four rect primitives between the rounded corners*
20,1,$1+$1,$2,$3,$4,$5,0*
20,1,$1+$1,$4,$5,$6,$7,0*
20,1,$1+$1,$6,$7,$8,$9,0*
20,1,$1+$1,$8,$9,$2,$3,0*%
G04 Aperture macros list end*
%ADD10RoundRect,0.250000X-0.262500X-0.450000X0.262500X-0.450000X0.262500X0.450000X-0.262500X0.450000X0*%
%ADD11RoundRect,0.150000X-0.512500X-0.150000X0.512500X-0.150000X0.512500X0.150000X-0.512500X0.150000X0*%
%ADD12C,2.000000*%
%ADD13R,2.800000X3.600000*%
%ADD14RoundRect,0.250000X0.262500X0.450000X-0.262500X0.450000X-0.262500X-0.450000X0.262500X-0.450000X0*%
%ADD15RoundRect,0.250000X-0.250000X-0.475000X0.250000X-0.475000X0.250000X0.475000X-0.250000X0.475000X0*%
%ADD16C,0.800000*%
%ADD17C,5.000000*%
%ADD18C,3.000000*%
%ADD19C,1.600000*%
%ADD20R,1.550000X1.300000*%
%ADD21RoundRect,0.250000X-0.450000X0.262500X-0.450000X-0.262500X0.450000X-0.262500X0.450000X0.262500X0*%
%ADD22C,0.650000*%
%ADD23R,0.300000X1.150000*%
%ADD24O,1.000000X1.600000*%
%ADD25O,1.000000X2.100000*%
%ADD26C,3.987800*%
%ADD27C,1.750000*%
%ADD28C,3.300000*%
G04 APERTURE END LIST*
D10*
%TO.C,R4*%
X72906250Y-65881250D03*
X74731250Y-65881250D03*
%TD*%
D11*
%TO.C,U1*%
X63950000Y-65463146D03*
X63950000Y-66413146D03*
X63950000Y-67363146D03*
X66225000Y-67363146D03*
X66225000Y-66413146D03*
X66225000Y-65463146D03*
%TD*%
D12*
%TO.C,S2*%
X96718750Y-76887500D03*
X101718750Y-76887500D03*
D13*
X104918750Y-83887500D03*
X93518750Y-83887500D03*
D12*
X96718750Y-91387500D03*
X101718750Y-91387500D03*
X99218750Y-91387500D03*
%TD*%
D14*
%TO.C,R9*%
X58062500Y-61650646D03*
X56237500Y-61650646D03*
%TD*%
D15*
%TO.C,C3*%
X93506250Y-99218750D03*
X95406250Y-99218750D03*
%TD*%
D12*
%TO.C,S1*%
X41156250Y-76887500D03*
X46156250Y-76887500D03*
D13*
X37956250Y-83887500D03*
X49356250Y-83887500D03*
D12*
X41156250Y-91387500D03*
X46156250Y-91387500D03*
X43656250Y-91387500D03*
%TD*%
D16*
%TO.C,H3*%
X109005425Y-164567925D03*
X109005425Y-167219575D03*
X110331250Y-164018750D03*
X111657075Y-164567925D03*
X108456250Y-165893750D03*
X112206250Y-165893750D03*
X111657075Y-167219575D03*
X110331250Y-167768750D03*
D17*
X110331250Y-165893750D03*
%TD*%
D16*
%TO.C,H5*%
X71437500Y-164018750D03*
X70111675Y-167219575D03*
D17*
X71437500Y-165893750D03*
D16*
X72763325Y-164567925D03*
X72763325Y-167219575D03*
X69562500Y-165893750D03*
X71437500Y-167768750D03*
X70111675Y-164567925D03*
X73312500Y-165893750D03*
%TD*%
D18*
%TO.C,U3*%
X82532500Y-71986896D03*
X82532500Y-93986896D03*
X60532500Y-71986896D03*
X60532500Y-93986896D03*
D19*
X67722500Y-71486896D03*
X70262500Y-71486896D03*
X72802500Y-71486896D03*
X75342500Y-71486896D03*
%TD*%
D20*
%TO.C,SW13*%
X92068750Y-61781896D03*
X100018750Y-61781896D03*
X100018750Y-66281896D03*
X92068750Y-66281896D03*
%TD*%
D16*
%TO.C,H1*%
X31217925Y-164567925D03*
X34418750Y-165893750D03*
X30668750Y-165893750D03*
X33869575Y-167219575D03*
X32543750Y-164018750D03*
X33869575Y-164567925D03*
D17*
X32543750Y-165893750D03*
D16*
X32543750Y-167768750D03*
X31217925Y-167219575D03*
%TD*%
%TO.C,H4*%
X109005425Y-54768571D03*
X110331250Y-54219396D03*
X108456250Y-56094396D03*
X111657075Y-54768571D03*
D17*
X110331250Y-56094396D03*
D16*
X111657075Y-57420221D03*
X112206250Y-56094396D03*
X110331250Y-57969396D03*
X109005425Y-57420221D03*
%TD*%
D10*
%TO.C,R8*%
X75287500Y-63500000D03*
X77112500Y-63500000D03*
%TD*%
D21*
%TO.C,R3*%
X71437500Y-61531896D03*
X71437500Y-63356896D03*
%TD*%
D16*
%TO.C,H2*%
X34418750Y-56094396D03*
X32543750Y-57969396D03*
X33869575Y-54768571D03*
X30668750Y-56094396D03*
X33869575Y-57420221D03*
X31217925Y-54768571D03*
X31217925Y-57420221D03*
X32543750Y-54219396D03*
D17*
X32543750Y-56094396D03*
%TD*%
D22*
%TO.C,J1*%
X70135000Y-57111896D03*
X75915000Y-57111896D03*
D23*
X76375000Y-58176896D03*
X75575000Y-58176896D03*
X74275000Y-58176896D03*
X73275000Y-58176896D03*
X72775000Y-58176896D03*
X71775000Y-58176896D03*
X70475000Y-58176896D03*
X69675000Y-58176896D03*
X69975000Y-58176896D03*
X70775000Y-58176896D03*
X71275000Y-58176896D03*
X72275000Y-58176896D03*
X73775000Y-58176896D03*
X74775000Y-58176896D03*
X75275000Y-58176896D03*
X76075000Y-58176896D03*
D24*
X68705000Y-53431896D03*
X77345000Y-53431896D03*
D25*
X77345000Y-57611896D03*
X68705000Y-57611896D03*
%TD*%
D26*
%TO.C,SW11*%
X100012500Y-130968750D03*
D27*
X105092500Y-130968750D03*
X94932500Y-130968750D03*
D28*
X96202500Y-128428750D03*
X102552500Y-125888750D03*
%TD*%
D27*
%TO.C,SW6*%
X66992500Y-150018750D03*
D26*
X61912500Y-150018750D03*
D27*
X56832500Y-150018750D03*
D28*
X58102500Y-147478750D03*
X64452500Y-144938750D03*
%TD*%
D26*
%TO.C,SW2*%
X42862500Y-130968750D03*
D27*
X37782500Y-130968750D03*
X47942500Y-130968750D03*
D28*
X39052500Y-128428750D03*
X45402500Y-125888750D03*
%TD*%
D26*
%TO.C,SW7*%
X80962500Y-111918750D03*
D27*
X86042500Y-111918750D03*
X75882500Y-111918750D03*
D28*
X77152500Y-109378750D03*
X83502500Y-106838750D03*
%TD*%
D27*
%TO.C,SW4*%
X66992500Y-111918750D03*
D26*
X61912500Y-111918750D03*
D27*
X56832500Y-111918750D03*
D28*
X58102500Y-109378750D03*
X64452500Y-106838750D03*
%TD*%
D26*
%TO.C,SW9*%
X80962500Y-150018750D03*
D27*
X86042500Y-150018750D03*
X75882500Y-150018750D03*
D28*
X77152500Y-147478750D03*
X83502500Y-144938750D03*
%TD*%
D27*
%TO.C,SW8*%
X86042500Y-130968750D03*
D26*
X80962500Y-130968750D03*
D27*
X75882500Y-130968750D03*
D28*
X77152500Y-128428750D03*
X83502500Y-125888750D03*
%TD*%
D26*
%TO.C,SW1*%
X42862500Y-111918750D03*
D27*
X37782500Y-111918750D03*
X47942500Y-111918750D03*
D28*
X39052500Y-109378750D03*
X45402500Y-106838750D03*
%TD*%
D27*
%TO.C,SW5*%
X66992500Y-130968750D03*
D26*
X61912500Y-130968750D03*
D27*
X56832500Y-130968750D03*
D28*
X58102500Y-128428750D03*
X64452500Y-125888750D03*
%TD*%
D27*
%TO.C,SW12*%
X94932500Y-150018750D03*
X105092500Y-150018750D03*
D26*
X100012500Y-150018750D03*
D28*
X96202500Y-147478750D03*
X102552500Y-144938750D03*
%TD*%
D26*
%TO.C,SW10*%
X100012500Y-111918750D03*
D27*
X105092500Y-111918750D03*
X94932500Y-111918750D03*
D28*
X96202500Y-109378750D03*
X102552500Y-106838750D03*
%TD*%
D27*
%TO.C,SW3*%
X47942500Y-150018750D03*
X37782500Y-150018750D03*
D26*
X42862500Y-150018750D03*
D28*
X39052500Y-147478750D03*
X45402500Y-144938750D03*
%TD*%
M02*
